<mxfile host="app.diagrams.net" modified="2020-07-09T06:41:56.067Z" agent="5.0 (Macintosh; Intel Mac OS X 10_15_2) AppleWebKit/537.36 (KHTML, like Gecko) Chrome/83.0.4103.116 Safari/537.36" etag="UBHasP7kWKKTwgPePFzE" version="13.3.9" type="github">
  <diagram id="SLjYNkCGCdBYHWG2dAbt" name="Page-1">
    <mxGraphModel dx="2066" dy="1154" grid="1" gridSize="10" guides="1" tooltips="1" connect="1" arrows="1" fold="1" page="1" pageScale="1" pageWidth="827" pageHeight="1169" math="0" shadow="0">
      <root>
        <mxCell id="0" />
        <mxCell id="1" parent="0" />
        <mxCell id="tGvtrwMOTFhzDvKhw0iq-7" value="" style="rounded=1;arcSize=10;dashed=0;fillColor=none;gradientColor=none;strokeWidth=2;" vertex="1" parent="1">
          <mxGeometry x="210" y="400" width="340" height="100" as="geometry" />
        </mxCell>
        <mxCell id="tGvtrwMOTFhzDvKhw0iq-5" value="" style="rounded=1;arcSize=10;dashed=0;fillColor=none;gradientColor=none;strokeWidth=2;" vertex="1" parent="1">
          <mxGeometry x="210" y="290" width="340" height="100" as="geometry" />
        </mxCell>
        <mxCell id="tGvtrwMOTFhzDvKhw0iq-1" value="Reader" style="rounded=1;whiteSpace=wrap;html=1;" vertex="1" parent="1">
          <mxGeometry x="240" y="310" width="120" height="60" as="geometry" />
        </mxCell>
        <mxCell id="tGvtrwMOTFhzDvKhw0iq-2" value="Writer" style="rounded=1;whiteSpace=wrap;html=1;" vertex="1" parent="1">
          <mxGeometry x="400" y="310" width="120" height="60" as="geometry" />
        </mxCell>
        <mxCell id="tGvtrwMOTFhzDvKhw0iq-3" value="NsqLookup" style="rounded=1;whiteSpace=wrap;html=1;" vertex="1" parent="1">
          <mxGeometry x="400" y="420" width="120" height="60" as="geometry" />
        </mxCell>
        <mxCell id="tGvtrwMOTFhzDvKhw0iq-4" value="NsqdConnection" style="rounded=1;whiteSpace=wrap;html=1;" vertex="1" parent="1">
          <mxGeometry x="240" y="420" width="120" height="60" as="geometry" />
        </mxCell>
        <mxCell id="tGvtrwMOTFhzDvKhw0iq-8" value="API Layer" style="text;html=1;align=center;verticalAlign=middle;resizable=0;points=[];autosize=1;" vertex="1" parent="1">
          <mxGeometry x="120" y="330" width="70" height="20" as="geometry" />
        </mxCell>
        <mxCell id="tGvtrwMOTFhzDvKhw0iq-9" value="Client Internal Logic Layer" style="text;html=1;align=center;verticalAlign=middle;resizable=0;points=[];autosize=1;" vertex="1" parent="1">
          <mxGeometry x="40" y="440" width="150" height="20" as="geometry" />
        </mxCell>
        <mxCell id="tGvtrwMOTFhzDvKhw0iq-12" value="Command" style="rounded=1;whiteSpace=wrap;html=1;" vertex="1" parent="1">
          <mxGeometry x="240" y="530" width="120" height="60" as="geometry" />
        </mxCell>
        <mxCell id="tGvtrwMOTFhzDvKhw0iq-16" value="" style="rounded=1;arcSize=10;dashed=0;fillColor=none;gradientColor=none;strokeWidth=2;" vertex="1" parent="1">
          <mxGeometry x="210" y="510" width="180" height="100" as="geometry" />
        </mxCell>
        <mxCell id="tGvtrwMOTFhzDvKhw0iq-17" value="Protocol Layer" style="text;html=1;align=center;verticalAlign=middle;resizable=0;points=[];autosize=1;" vertex="1" parent="1">
          <mxGeometry x="100" y="550" width="90" height="20" as="geometry" />
        </mxCell>
      </root>
    </mxGraphModel>
  </diagram>
</mxfile>
